<svg width="24" height="24" viewBox="0 0 24 24" fill="none" xmlns="http://www.w3.org/2000/svg">
    <path
        d="M6 21C5.25 21 4.50833 20.8167 3.775 20.45C3.04167 20.0833 2.45 19.6 2 19C2.43333 19 2.875 18.829 3.325 18.487C3.775 18.145 4 17.6493 4 17C4 16.1667 4.29167 15.4583 4.875 14.875C5.45833 14.2917 6.16667 14 7 14C7.83333 14 8.54167 14.2917 9.125 14.875C9.70833 15.4583 10 16.1667 10 17C10 18.1 9.60833 19.0417 8.825 19.825C8.04167 20.6083 7.1 21 6 21ZM11.75 15L9 12.25L17.95 3.30001C18.1333 3.11668 18.3627 3.02068 18.638 3.01201C18.9133 3.00335 19.1507 3.09935 19.35 3.30001L20.7 4.65001C20.9 4.85001 21 5.08335 21 5.35001C21 5.61668 20.9 5.85001 20.7 6.05001L11.75 15Z"
        fill="black" />
</svg>